<?xml version="1.0" encoding="UTF-8" standalone="no"?>
<svg
   viewBox="-7.40811 -1.27766 148.16221 25.55311"
   version="1.1"
   id="svg2"


   xmlns="http://www.w3.org/2000/svg"
   xmlns:svg="http://www.w3.org/2000/svg">
  <defs
     id="defs2" />
  <g
     fill="#ffffff"
     id="g2">
    <path
       fill-rule="evenodd"
       d="m 17.211,15.9366 c 0,1.9726 -0.68,3.5818 -2.0925,4.7758 -1.4124,1.1939 -3.2434,1.8168 -5.54518,1.8168 H 0 V 0 h 8.94555 c 4.55125,0 7.48085,2.4398 7.48085,6.38501 0,1.92072 -0.7324,3.37418 -2.0926,4.46429 1.9356,1.142 2.8772,2.8032 2.8772,5.0873 z M 5.80677,5.13916 v 3.5299 h 2.98189 c 1.04622,0 1.83094,-0.62294 1.83094,-1.76494 0,-1.03821 -0.78472,-1.76496 -1.83094,-1.76496 z M 9.41636,17.3901 c 1.15094,0 1.98794,-0.7787 1.98794,-1.9207 0,-1.1421 -0.7847,-1.9207 -1.98794,-1.9207 H 5.80677 v 3.7895 H 9.41636 Z M 24.4302,16.4547 c 0.5755,1.2978 1.7264,1.9726 3.6096,1.9726 1.1509,0 2.1449,-0.3633 2.9296,-1.142 l 3.8712,2.6993 c -1.5694,1.9726 -3.9235,3.0109 -6.9577,3.0109 -2.7726,0 -4.9698,-0.7786 -6.5915,-2.3879 -1.674,-1.6092 -2.4587,-3.6337 -2.4587,-6.0735 0,-2.3879 0.7847,-4.4643 2.4064,-6.07362 1.6217,-1.66113 3.7142,-2.43978 6.173,-2.43978 2.4064,0 4.3943,0.77865 6.016,2.38788 1.5694,1.60922 2.3541,3.63372 2.3541,6.07362 0,0.7267 -0.0523,1.4015 -0.2093,1.9725 z m 6.173,-3.6856 c -0.4185,-1.5054 -1.4648,-2.2322 -3.0342,-2.2322 -1.674,0 -2.7203,0.7268 -3.1911,2.2322 z m 14.8046,-1.1942 h 3.3481 V 6.43574 H 45.4078 V 1.91952 l -5.3882,1.60923 v 2.9589 h -2.4065 v 5.13915 h 2.4065 v 4.7758 c 0,2.5436 0.6277,4.3085 1.9355,5.2949 1.3079,0.9862 3.6097,1.2459 6.8008,0.8825 v -4.8277 c -2.4065,0.1038 -3.3481,-0.1038 -3.3481,-1.5055 z"
       id="path1" />
    <path
       fill-rule="evenodd"
       d="m 66.8035,20.7124 c 1.4125,-1.194 2.0925,-2.8032 2.0925,-4.7758 0,-2.2841 -0.9416,-3.9453 -2.8248,-5.0873 C 67.4313,9.75919 68.1637,8.30573 68.1637,6.38501 68.1637,2.4398 65.2341,0 60.6829,0 h -8.9456 v 22.5292 h 9.521 c 2.3018,0 4.1327,-0.6229 5.5452,-1.8168 z M 57.5441,8.66906 v -3.5299 h 2.9819 c 1.0462,0 1.8309,0.72675 1.8309,1.76496 0,1.142 -0.7847,1.76494 -1.8309,1.76494 z m 5.5452,6.80034 c 0,1.142 -0.8371,1.9207 -1.9879,1.9207 v -0.0519 h -3.5573 v -3.7895 h 3.5573 c 1.2032,0 1.9879,0.7786 1.9879,1.9207 z M 70.57,14.4845 c 0,2.3879 0.8371,4.4124 2.5112,6.0735 1.6739,1.6093 3.7143,2.4398 6.1205,2.4398 2.4062,0 4.4466,-0.7786 6.1206,-2.4398 1.6739,-1.6611 2.5112,-3.6856 2.5112,-6.0735 0,-2.3879 -0.8373,-4.3605 -2.5112,-6.02158 -1.6218,-1.66117 -3.7144,-2.49175 -6.1206,-2.49175 -2.4062,0 -4.4466,0.83058 -6.1205,2.49175 C 71.4071,10.124 70.57,12.0966 70.57,14.4845 Z m 8.6317,-3.3222 c 1.9354,0 3.2957,1.3496 3.2957,3.3222 0,1.9726 -1.3603,3.3223 -3.2957,3.3223 -1.8311,0 -3.2435,-1.3497 -3.2435,-3.3223 0,-1.9207 1.4124,-3.3222 3.2435,-3.3222 z m 12.8169,9.3957 c -1.6739,-1.6611 -2.5112,-3.6856 -2.5112,-6.0735 0,-2.3879 0.8373,-4.3605 2.5112,-6.02158 1.674,-1.66117 3.7144,-2.49175 6.1206,-2.49175 2.4058,0 4.4988,0.83058 6.1208,2.49175 1.674,1.66108 2.511,3.63368 2.511,6.02158 0,2.3879 -0.837,4.4124 -2.511,6.0735 -1.674,1.6612 -3.715,2.4398 -6.1208,2.4398 -2.4062,0 -4.4466,-0.8305 -6.1206,-2.4398 z m 9.3644,-6.0735 c 0,-1.9726 -1.361,-3.3222 -3.296,-3.3222 -1.8311,0 -3.2435,1.4015 -3.2435,3.3222 0,1.9726 1.4124,3.3223 3.2435,3.3223 1.935,0 3.296,-1.3497 3.296,-3.3223 z m 31.963,8.0462 v -9.863 c 0,-4.15288 -2.354,-6.69653 -6.121,-6.69653 -2.04,0 -3.557,0.67485 -4.708,2.07646 -0.889,-1.40161 -2.301,-2.07646 -4.132,-2.07646 -1.936,0 -3.401,0.67485 -4.395,1.9726 v -1.5054 h -5.388 V 22.5307 h 5.388 v -8.7729 c 0,-1.6612 0.785,-2.6994 2.25,-2.6994 1.36,0 2.04,0.7268 2.04,2.2321 v 9.2402 h 5.388 v -8.7729 c 0,-1.6612 0.785,-2.6994 2.25,-2.6994 1.307,0 1.987,0.7268 1.987,2.2321 v 9.2402 z"
       id="path2" />
  </g>
</svg>
