<?xml version="1.0" encoding="UTF-8" standalone="no"?>
<svg
   viewBox="-66.88889 -66.88889 477.77778 477.77778"
   version="1.1"
   id="svg1"


   xmlns="http://www.w3.org/2000/svg"
   xmlns:svg="http://www.w3.org/2000/svg">
  <defs
     id="defs1" />
  <path
     fill="#ffffff"
     d="M 172,0 C 76.9838,0 0,76.9839 0,172 0,267.016 76.9838,344 172,344 267.016,344 344,267.016 344,172 344,76.9839 267.016,0 172,0 Z m -0.173,112.181 h -16.819 c -18.032,0 -29.476,0 -35.718,2.081 -6.068,1.907 -10.576,4.161 -13.004,7.803 -2.254,2.947 -2.947,6.762 -2.947,10.229 0,3.642 0.346,6.936 3.988,11.617 4.334,4.335 11.617,10.057 25.834,18.726 28.262,17.686 36.585,31.557 36.585,49.936 0,29.996 -28.262,58.604 -75.5968,58.604 -14.2178,0 -34.1573,-2.08 -42.4799,-4.681 l -4.3346,-1.214 c 1.7338,-5.722 7.2822,-21.326 9.883,-28.088 l 4.5081,1.04 c 9.3629,2.254 23.9274,3.641 33.4637,3.641 27.7415,0 38.4915,-12.484 38.4915,-23.407 0,-10.057 -5.548,-15.605 -32.943,-32.25 -25.8348,-15.952 -34.6775,-29.823 -34.6775,-48.895 0,-22.888 14.7378,-40.3996 36.0645,-48.7222 12.657,-4.6814 30.343,-6.2419 57.391,-6.2419 h 24.448 z M 289.21,88.0807 C 283.661,101.778 231.818,231.819 231.818,231.819 h -34.677 c 0,0 41.093,-104.553 47.855,-120.158 -4.682,0 -8.323,0.347 -27.048,0.347 h -27.916 l 11.964,-29.8225 h 84.093 c 3.814,0.1734 4.681,2.9476 3.121,5.8952 z"
     id="path1" />
</svg>
