<?xml version="1.0" encoding="UTF-8" standalone="no"?>
<svg


   viewBox="-17.20168 -3.24583 286.69469 54.09712"
   version="1.1"
   id="svg5"
   xmlns="http://www.w3.org/2000/svg"
   xmlns:svg="http://www.w3.org/2000/svg">
  <defs
     id="defs5" />
  <path
     fill-rule="nonzero"
     fill="#ffffff"
     fill-opacity="1"
     d="m 47.557967,20.628906 c 0,0 1.1875,-13.378906 1.296874,-14.691406 C 49.038435,3.832031 47.343123,0 43.253279,0 H 31.182967 V 0.0039 H 9.4798409 c -4.089843,0 -6.074218,2.777344 -6.332031,5.425781 C 2.9954669,7.0039 0.20640387,39.34765 0.02671687,41.214837 c -0.289063,2.996094 1.78125003,6.390625 5.54296803,6.390625 H 39.143904 c 4.457031,0 6.1875,-2.359375 6.566406,-5.996094 0.230469,-2.175775 1.332031,-15.343744 1.332031,-15.343744 H 26.745467 l -0.875,10.175782 h -5.140626 l 2.214844,-25.273438 h 5.132813 l -0.8125,9.460938 z m 0,0"
     id="path1" />
  <path
     fill-rule="nonzero"
     fill="#ffffff"
     fill-opacity="1"
     d="m 78.882189,4.085937 c -0.72266,2.085937 -6.62891,20.574219 -6.62891,20.574219 l 2.625,-24.65625 H 54.593123 l -4.25,47.601562 h 15.289062 c 3.839844,0 5.152344,-2.179687 5.792969,-3.921875 0.761715,-2.085937 6.394535,-17.640625 6.394535,-17.640625 l -2.07422,21.5625 h 20.30469 L 100.23375,0.003906 c 0,0 -14.550781,0 -15.933591,0 -3.51563,0 -4.90235,2.601562 -5.41797,4.082031"
     id="path2" />
  <path
     fill-rule="nonzero"
     fill="#ffffff"
     fill-opacity="1"
     d="m 181.69859,0.003906 -1.89844,21.710937 h -5.14843 l 1.90234,-21.710937 h -20.29687 c 0,0 -1.94922,22.984375 -2.15235,25.203125 -0.24609,2.648437 1.25391,6.40625 5.75,6.40625 h 19.07813 l -0.42188,4.828125 h -25.39062 l -0.97657,11.164062 h 40.39063 c 2.73047,0 5.37891,-1.785156 5.73437,-5.601562 0.23438,-2.453125 3.72657,-42 3.72657,-42 z m 0,0"
     id="path3" />
  <path
     fill-rule="nonzero"
     fill="#ffffff"
     fill-opacity="1"
     d="m 225.39,22.980468 1.03125,-11.808594 h 5.08594 l -1.03516,11.808594 z m 9.27344,-22.972656 h -7.26172 v -0.0039 h -20.29688 l -4.16406,47.601556 h 20.29297 l 1.28906,-14.726562 h 7.26563 -1.34766 13.80078 c 3.48438,0 5.80078,-1.777344 6.17578,-5.863282 0.14844,-1.582031 1.75,-19.625 1.85938,-21.21875 0.24218,-3.519531 -2.5586,-5.789062 -6.03516,-5.789062 z m 0,0"
     id="path4" />
  <path
     fill-rule="nonzero"
     fill="#ffffff"
     fill-opacity="1"
     d="m 127.5814,37.703124 h -5.17968 l 1.03515,-11.808593 h 5.17969 z m -3.27734,-21.707031 0.42188,-4.828125 h 25.42187 l 0.97656,-11.164062 h -45.72265 l -4.16407,47.601562 h 7.625 c 0,0 30.42579,0 32.88282,0 2.57031,0 5.35937,-1.527344 5.72656,-5.507812 0.26953,-2.984375 1.51953,-17.140625 1.75,-19.707032 0.30078,-3.429687 -1.87891,-6.394531 -6.15234,-6.394531 z m 0,0"
     id="path5" />
</svg>
