<?xml version="1.0" encoding="UTF-8" standalone="no"?>
<svg
   viewBox="-32.3913 -9.32174 809.78261 233.04347"
   version="1.1"
   id="svg4"


   xmlns="http://www.w3.org/2000/svg"
   xmlns:svg="http://www.w3.org/2000/svg">
  <defs
     id="defs4" />
  <g
     transform="translate(0,-785.6)"
     fill="#ffffff"
     id="g4">
    <path
       fill-rule="evenodd"
       d="M 90.8,810.5 H 76.4 c -26.4,0 -40.2,13.2 -40.2,32.8 0,22.2 9.6,32.5 29.3,45.8 l 16.2,10.8 -46.9,69.6 H 0 L 42.1,907.3 C 17.9,890.1 4.3,873.4 4.3,845.1 4.3,809.6 29.1,785.6 76.2,785.6 H 123 V 969.5 H 90.8 Z"
       id="path1" />
    <path
       fill-rule="evenodd"
       d="m 352.6,944.7 h -44.7 c 8.8,-20.1 11.2,-56.4 11.2,-79.4 v -4 h 33.6 v 83.4 z m 31.7,-108.2 h -92.4 v 11.4 c 0,32.5 -2.1,74.6 -13.3,96.8 h -9.9 V 1000 H 298 v -30.4 h 71.1 v 30.4 h 29.3 v -55.3 h -14.1 z"
       id="path2" />
    <polygon
       fill="#ffffff"
       fill-rule="evenodd"
       points="181.4,836.5 149.7,836.5 149.7,969.6 181.4,969.6 181.4,914 223.7,914 223.7,969.6 255.4,969.6 255.4,836.5 223.7,836.5 223.7,889.1 181.4,889.1 "
       id="polygon2" />
    <polygon
       fill="#ffffff"
       fill-rule="evenodd"
       points="568.4,897.9 568.4,836.5 536.7,836.5 536.7,969.6 568.4,969.6 568.4,904.2 615.3,969.6 651.2,969.6 600.3,897.9 645.1,836.5 613.1,836.5 "
       id="polygon3" />
    <path
       fill-rule="evenodd"
       d="m 714.3,858.7 c 12.3,0 24.2,4.2 30.6,8.2 v -26.7 c -6.7,-3.7 -18.4,-6.4 -34.1,-6.4 -40.5,0 -61.5,28.8 -61.5,69.3 0,44.5 20.5,69.1 62.9,69.1 14.7,0 25,-2.6 32.8,-8.2 v -25.7 c -8,5.6 -17.6,9 -30.9,9 -22.6,0 -32,-17.5 -32,-45 0,-28.8 11.5,-43.6 32.2,-43.6 z"
       id="path3" />
    <path
       fill-rule="evenodd"
       d="m 483.1,891 h -44.2 c 0.8,-21.2 8.5,-32.3 23.7,-32.3 15.7,0 20.5,13 20.5,29.6 z m -19.9,-57.2 c -38.6,0 -57,29.4 -57,69.6 0,46.3 22.9,68.8 63.4,68.8 20.2,0 35.2,-5.3 44.5,-11.6 v -25.7 c -9.9,6.6 -26.4,12.4 -41.8,12.4 -23.2,0 -32,-10.8 -33.3,-33.1 h 76.4 v -16.7 c 0,-46.2 -20.5,-63.7 -52.2,-63.7 z"
       id="path4" />
  </g>
</svg>
