<?xml version="1.0" encoding="UTF-8" standalone="no"?>
<svg
   viewBox="19.92053 23.21252 390.77894 47.09907"
   version="1.1"
   id="svg7"


   xmlns="http://www.w3.org/2000/svg"
   xmlns:svg="http://www.w3.org/2000/svg">
  <defs
     id="defs7" />
  <g
     fill="#ffffff"
     id="g7">
    <path
       d="m 84.42,28.98 c -4,-1.51 -11.19,-3.84 -21.78,-3.84 -19.28,0 -32.95,9.71 -32.95,22.08 0,13.06 11.76,21.67 32.88,21.67 10.68,0 17.42,-2.54 21.6,-4.25 0.09,-0.03 0.14,-0.11 0.14,-0.22 L 84.24,54.13 c 0,-0.12 -0.08,-0.21 -0.21,-0.22 l -0.79,-0.04 c -0.11,0 -0.2,0.09 -0.22,0.17 -2.51,9.43 -10.54,13.01 -20.46,13.01 -13.6,0 -23.04,-7.59 -23.04,-20.03 0,-12.44 8.2,-19.96 23.11,-19.96 10.65,0 17.26,4.51 19.84,11.8 0.03,0.1 0.11,0.17 0.21,0.16 h 0.82 c 0.11,0 0.2,-0.1 0.21,-0.2 l 0.85,-9.6 c 0.01,-0.09 -0.03,-0.18 -0.15,-0.24 z"
       id="path1" />
    <path
       d="M 198.07,66.89 C 193.54,66.32 190.7,62.39 187.6,57 L 174.82,35.19 c -2.9,-4.99 -6.37,-10.71 -6.37,-10.71 0,0 0,-0.01 -0.02,-0.02 -0.04,-0.07 -0.09,-0.07 -0.21,-0.07 -0.04,0 -0.27,0 -0.39,0 -0.12,0 -0.15,0.04 -0.2,0.11 -1.34,2.23 -2.73,4.79 -6.84,11.51 L 149.44,54.4 c -5.2,8.61 -8.45,11.87 -10.64,12.47 -0.12,0.05 -0.16,0.16 -0.16,0.22 v 0.88 c 0,0.13 0.11,0.23 0.24,0.23 1.52,-0.07 3.29,-0.13 6.73,-0.13 3.44,0 8.18,0.13 8.18,0.13 0,0 0.22,-0.02 0.23,-0.25 V 67.1 c 0,-0.1 -0.06,-0.2 -0.19,-0.23 -3.62,-0.84 -4.87,-2.66 -4.87,-4.95 0,-2.29 1.37,-4.92 3.21,-8.2 l 1.4,-2.49 c 0.05,-0.09 0.11,-0.17 0.28,-0.17 h 21.02 c 0.12,0 0.22,0.04 0.3,0.17 l 2.77,4.69 c 1.85,3.14 3.28,5.4 3.28,7.45 0,1.88 -1.45,2.97 -5.14,3.53 -0.19,0.04 -0.19,0.23 -0.19,0.23 v 0.85 c 0,0.18 0.13,0.26 0.23,0.25 3.87,0 7.43,-0.14 10.91,-0.14 3.48,0 10.99,0.14 10.99,0.14 0,0 0.21,0 0.22,-0.24 v -0.83 c 0,0 0.01,-0.21 -0.2,-0.25 z M 173.59,49.14 h -18.37 c -0.21,0 -0.28,-0.22 -0.2,-0.37 l 2.16,-3.46 c 4.18,-6.92 5.8,-9.54 7.07,-11.61 0.11,-0.16 0.3,-0.17 0.41,-0.01 1.14,1.9 3.24,5.24 7.01,11.62 l 2.1,3.46 c 0.08,0.12 0.03,0.36 -0.19,0.37 z"
       id="path2" />
    <path
       d="m 394.01,47.02 c -3.9,-1.85 -8.95,-2.81 -14.36,-3.76 l -4.24,-0.75 c -9.09,-1.5 -12.99,-3.49 -12.99,-8.27 0,-4.37 4.99,-7.32 14.77,-7.32 10.49,0 15.35,4.82 17.11,10.95 0.04,0.12 0.11,0.19 0.26,0.19 h 0.88 c 0.12,0 0.21,-0.1 0.23,-0.21 l 0.87,-9.56 c 0,0 0,-0.07 -0.06,-0.09 -5.45,-1.7 -11.11,-3.06 -19.21,-3.06 -12.71,0 -22.49,3.97 -22.49,11.97 0,8 7.73,10.53 18.19,12.44 l 4.03,0.68 c 9.36,1.71 16.55,2.87 16.55,8.89 0,5.54 -7.59,7.93 -17.3,7.93 -9.17,0 -17.67,-3.65 -20.46,-13.01 -0.03,-0.1 -0.1,-0.18 -0.23,-0.18 h -0.83 c -0.11,0 -0.22,0.08 -0.24,0.23 l -0.93,10.55 c 0,0.05 0.02,0.1 0.08,0.13 2.95,1.25 11.1,4.13 22.61,4.13 15.18,0 24.68,-4.03 24.68,-12.72 0,-4.31 -2.73,-7.18 -6.9,-9.16 z"
       id="path3" />
    <path
       d="m 348.9,25.9 c -2.8,0.07 -5.77,0.13 -8.29,0.13 -2.79,0 -5.39,-0.07 -8.68,-0.13 -0.13,0 -0.27,0.08 -0.27,0.28 v 0.85 c 0,0.11 0.05,0.23 0.21,0.25 3.68,0.43 5.48,1.65 6.55,3.39 1.43,2.39 1.5,5.95 1.5,11.01 v 4.92 c 0,5.22 0.04,8.85 0.06,10.04 0,0.21 -0.19,0.26 -0.32,0.16 -0.73,-0.71 -3.09,-2.96 -8.36,-7.4 L 315.91,36 c -6.16,-5.23 -10.46,-9.06 -11.27,-9.97 -0.05,-0.06 -0.13,-0.07 -0.17,-0.08 -2.04,0.06 -4.98,0.07 -6.73,0.07 -2.55,0 -3.39,0 -7.43,-0.13 -0.12,0 -0.23,0.1 -0.23,0.23 v 0.94 c 0.02,0.19 0.19,0.22 0.19,0.22 2.31,0.46 4.74,1.04 6.98,3.3 0.09,0.09 0.08,0.2 0.08,0.21 v 21.48 c 0,5.06 -0.07,8.61 -1.5,11 -1.07,1.74 -2.93,2.89 -5.97,3.52 -0.12,0.03 -0.19,0.14 -0.19,0.23 v 0.94 c 0,0.12 0.1,0.24 0.25,0.24 2.75,-0.07 4.95,-0.13 7.48,-0.13 2.81,0 6.14,0.07 9.48,0.13 0.07,0 0.22,-0.08 0.22,-0.25 v -0.91 c 0,-0.13 -0.07,-0.22 -0.19,-0.25 -3.04,-0.62 -5.03,-1.78 -6.1,-3.52 -1.44,-2.39 -1.5,-5.95 -1.5,-11 v -5.2 c 0,-7.32 -0.1,-13.09 -0.13,-14.59 0,-0.19 0.21,-0.24 0.32,-0.15 0.05,0.05 5.9,5.33 12.93,11.32 l 14.37,12.44 c 3.97,3.42 14.63,12.85 14.63,12.85 0,0 -0.06,-0.06 0.17,0.15 0.12,0.1 0.38,0.03 0.38,-0.21 0,-0.11 -0.07,-11.36 -0.07,-15.94 V 41.66 c 0,-5.06 0.07,-8.61 1.5,-11.01 1.07,-1.74 2.54,-2.76 5.55,-3.38 0.14,-0.04 0.19,-0.14 0.19,-0.25 v -0.9 c 0,-0.15 -0.1,-0.26 -0.25,-0.26 z"
       id="path4" />
    <path
       d="m 255.87,66.94 c -4.51,-1.13 -6,-4.24 -7.62,-8.02 l -0.41,-1.03 c -2.8,-6.93 -5.12,-10.19 -13.19,-10.62 -0.27,-0.01 -0.25,-0.35 -0.04,-0.38 8.11,-0.47 15,-3.82 15,-11.08 0,-8.75 -10.19,-9.84 -21.6,-9.84 -2.19,0 -4.44,0.07 -6.7,0.07 h -9.64 c -2.87,0 -7.58,0 -11.12,-0.13 -0.13,0 -0.24,0.11 -0.23,0.23 v 0.84 c 0,0.14 0.08,0.22 0.2,0.24 2.54,0.36 3.99,1.24 4.86,2.64 1.02,1.71 1.16,3.96 1.16,7.04 v 20.3 c 0,3.08 -0.14,5.33 -1.16,7.04 -0.87,1.4 -2.31,2.28 -4.86,2.64 -0.1,0.02 -0.2,0.1 -0.2,0.23 v 0.84 c 0,0.19 0.14,0.26 0.24,0.25 4.06,-0.13 7.27,-0.13 10.15,-0.13 3.08,0 9.75,0.13 9.75,0.13 0,0 0.22,0 0.24,-0.25 v -0.83 c 0,-0.11 -0.07,-0.21 -0.19,-0.24 -2.55,-0.36 -4,-1.24 -4.87,-2.64 -1.03,-1.71 -1.16,-3.96 -1.16,-7.04 v -9.15 c 0,-0.21 0.1,-0.28 0.24,-0.28 1.58,0 6.49,-0.07 8.23,-0.07 10.32,0 14.01,4.38 16.41,10.6 1.78,4.51 4.03,9.84 5.61,9.84 h 3.14 c 3.26,0 4.97,0 7.7,0.06 0.13,0 0.22,-0.11 0.23,-0.25 v -0.8 c 0,-0.1 -0.07,-0.2 -0.18,-0.22 z M 214.74,45.86 c -0.18,0 -0.26,-0.05 -0.26,-0.18 V 28.06 c 0,-0.17 0.09,-0.24 0.24,-0.25 2.44,-0.07 10.07,-0.13 11.72,-0.13 7.11,0 14.22,0.75 14.22,8.13 0,9.78 -8.68,10.05 -16.41,10.05 z"
       id="path5" />
    <path
       d="m 98.54,57.19 c 0,3.08 -0.14,5.34 -1.16,7.05 -0.87,1.4 -2.32,2.28 -4.86,2.64 -0.12,0.02 -0.2,0.11 -0.2,0.24 v 0.83 c 0,0.12 0.07,0.24 0.24,0.24 4.05,-0.13 7.26,-0.13 10.15,-0.13 h 22.9 c 1.33,0 2.65,0 3.89,0.02 1.23,0.01 2.37,0.03 3.35,0.05 0.97,0.02 1.78,0.04 2.35,0.05 0.32,0 0.57,0.01 0.72,0.02 0.17,0 0.21,-0.14 0.22,-0.16 l 3.23,-9.98 1.02,-3.15 c 0,0 0.04,-0.24 -0.17,-0.29 l -0.37,-0.08 -0.44,-0.1 c -0.08,-0.02 -0.18,0 -0.26,0.11 -0.98,1.77 -2.01,3.38 -3.17,4.81 -1.2,1.47 -2.54,2.75 -4.15,3.79 -1.61,1.05 -3.47,1.87 -5.71,2.42 -2.24,0.56 -4.85,0.85 -7.94,0.85 h -1.71 c -2.24,0 -3.98,-0.17 -5.34,-0.53 -1.35,-0.36 -2.32,-0.9 -3.01,-1.65 -0.69,-0.75 -1.1,-1.7 -1.33,-2.87 -0.23,-1.17 -0.3,-2.56 -0.3,-4.18 v 0 c 0,0 0,-20.3 0,-20.3 0,-3.08 0.14,-5.33 1.16,-7.04 0.87,-1.41 2.33,-2.29 4.89,-2.64 0.09,-0.02 0.17,-0.1 0.17,-0.25 v -0.83 c 0,-0.14 -0.11,-0.24 -0.23,-0.23 -3.72,0.13 -6.67,0.13 -9.75,0.13 -2.88,0 -6.09,0 -10.15,-0.13 -0.17,0 -0.24,0.12 -0.24,0.24 v 0.83 c 0,0.13 0.08,0.22 0.2,0.24 2.54,0.36 3.99,1.24 4.86,2.64 1.02,1.71 1.16,3.96 1.16,7.04 v 20.3 0"
       id="path6" />
    <path
       d="m 267.52,57.2 c 0,3.08 -0.14,5.33 -1.16,7.04 -0.87,1.4 -2.32,2.28 -4.86,2.64 -0.12,0.02 -0.2,0.11 -0.2,0.24 v 0.83 c 0,0.12 0.07,0.24 0.24,0.24 4.05,-0.13 7.26,-0.13 10.15,-0.13 v 0 c 3.08,0 6.04,0 9.75,0.13 0.14,0 0.23,-0.14 0.23,-0.24 v -0.82 0 c 0,-0.18 -0.11,-0.23 -0.21,-0.25 -2.54,-0.36 -3.99,-1.24 -4.85,-2.64 -1.02,-1.71 -1.16,-3.96 -1.16,-7.04 V 36.9 c 0,-3.08 0.14,-5.33 1.16,-7.04 0.87,-1.41 2.33,-2.29 4.89,-2.65 0.09,-0.02 0.17,-0.1 0.17,-0.25 v -0.83 c 0,-0.14 -0.11,-0.24 -0.23,-0.23 -3.72,0.13 -6.67,0.13 -9.75,0.13 -2.88,0 -6.09,0 -10.15,-0.13 -0.17,0 -0.24,0.12 -0.24,0.24 v 0.83 c 0,0.13 0.08,0.22 0.2,0.24 2.54,0.36 3.99,1.24 4.86,2.64 1.02,1.71 1.16,3.96 1.16,7.04 v 20.3"
       id="path7" />
  </g>
</svg>
