<?xml version="1.0" encoding="UTF-8" standalone="no"?>
<svg
   viewBox="-26.31579 -5.01842 1052.63158 200.73684"
   version="1.1"
   id="svg1"


   xmlns="http://www.w3.org/2000/svg"
   xmlns:svg="http://www.w3.org/2000/svg">
  <defs
     id="defs1" />
  <path
     fill="#ffffff"
     d="m 450.5,95.8 c 0,38 -23.2,55.9 -52.1,55.9 H 380.7 V 128.9 H 397 c 17.4,0 29.1,-9.4 29.1,-33.1 0,-23.4 -11,-35.1 -29.6,-35.1 -18,0 -30.8,11 -30.8,34.7 v 95.1 H 341.6 V 40.9 h 24.1 v 12.9 h 3.4 c 7.6,-10.1 19.7,-15.9 32.4,-15.6 26.8,0 49,19.3 49,57.6 z M 292,85.9 276,84.3 c -12.7,-1.2 -19.3,-4.6 -19.3,-11.9 0,-8.8 8.5,-13.8 20.7,-13.8 12.6,0 20.7,6 21.4,14.5 H 322 c -0.9,-21.6 -17.6,-34.9 -44.3,-34.9 -26.9,0 -45,14.2 -45,35.1 0,17.4 11,28.7 36,31.3 l 16.3,1.6 c 9.8,0.9 16.5,3 16.5,12.4 0,8.6 -6.2,14.7 -22.5,14.7 -15,0 -22.4,-6.8 -25,-16 h -25.1 c 2.6,20.9 20.1,37.1 50.2,37.1 28.2,0 46.6,-15 46.6,-37 C 325.6,97.9 312.7,88 292,85.9 Z m 252,31.4 c -3.8,8.7 -12.9,15.3 -25.7,15.3 -17.7,0 -30.8,-11.5 -30.8,-36.3 0,-23.7 12.2,-36.7 31,-36.7 16.7,0 26.4,10.1 27.4,25.2 h -43.4 v 17.5 h 67.1 V 90.7 c 0,-31.9 -21.1,-52.6 -51.2,-52.6 -28,0 -54.9,19 -54.9,58.1 0,39.1 26.9,58.2 54.9,58.2 23.2,0.8 43.8,-14.7 49.6,-37.1 z M 163.7,38.2 c -26.4,0 -46.1,13.8 -48.5,34.9 h 26 c 1.8,-7.8 9,-13.5 22.5,-13.5 17.4,0 23.2,9.2 23.2,20.5 V 118 c -9.8,11.3 -21.4,16.5 -32.8,16.5 -12,0 -20.2,-5.8 -20.2,-16.1 0,-9.9 6.4,-16.1 18.8,-16.1 H 172 V 84.8 h -20 c -27.6,0 -43,13.8 -43,34.9 0,19.8 14.9,34.8 39.5,34.8 12.7,-0.2 24.9,-4.5 34.9,-12.2 h 3.4 v 9.5 H 211 v -74 C 211,50.3 192.4,38.2 163.7,38.2 Z M 0,151.7 H 24.1 V 0 H 0.1 Z M 101.4,40.9 H 71.9 L 36.8,87.1 v 14.5 l 36,50.1 h 29.9 L 60.5,94.3 101.4,41 Z m 872,0 -19.8,43.9 c -4.5,8.9 -8.1,18.2 -10.7,27.8 h -3.5 c -1.4,-6.9 -6.2,-17 -11,-27.5 L 908.6,41 H 882 l 46.3,99.6 -22.9,50.1 h 25.7 L 1000,40.9 Z m -96.8,0 h -29.4 l -35.1,46.2 v 14.5 l 36,50.1 H 878 L 835.7,94.3 Z m -151,45 -16.1,-1.6 c -12.6,-1.2 -19.3,-4.6 -19.3,-11.9 0,-8.8 8.5,-13.8 20.7,-13.8 12.7,0 20.7,6 21.4,14.5 h 23.2 c -0.8,-21.6 -17.6,-34.9 -44.3,-34.9 -26.9,0 -45,14.2 -45,35.1 0,17.4 11.1,28.7 36,31.2 l 16.3,1.6 c 9.9,1 16.5,3 16.5,12.4 0,8.5 -6.2,14.7 -22.5,14.7 -15,0 -22.4,-6.8 -25,-16 h -25.1 c 2.6,20.9 20.1,37.1 50.2,37.1 28.2,0 46.6,-14.9 46.6,-37 C 759.1,97.9 746.3,88 725.6,85.9 Z m 49.7,65.7 h 24.1 V 0 h -24.1 z m -159,-97.8 h -3.5 V 40.9 h -24.1 v 110.7 h 24.1 V 93.7 c 0,-19.7 9.1,-31.2 27.1,-31.2 h 15.3 V 38.2 h -8.8 c -16.8,0 -23.9,6.2 -30.1,15.6 z"
     id="path1" />
</svg>
