<?xml version="1.0" encoding="UTF-8" standalone="no"?>
<svg
   viewBox="0 0 286 64"
   version="1.1"
   id="svg1"


   xmlns="http://www.w3.org/2000/svg"
   xmlns:svg="http://www.w3.org/2000/svg">
  <defs
     id="defs1" />
  <path
     fill="#ffffff"
     d="m 99.0382,1.71429 c 3.5728,0 6.1528,1.90476 6.1528,5.33333 0,1.90476 -0.794,4.38098 -2.183,7.42858 L 87.7252,50.6667 70.458,13.1429 c -1.3893,-2.8572 -1.9847,-4.95242 -1.9847,-7.04766 0,-2.28572 1.9847,-4.38095 6.3511,-4.38095 V 0 H 49.4198 v 1.71429 c 5.1604,0 6.7481,1.71428 9.7252,8.38091 L 83.5572,64 h 1.3894 L 107.771,10.6667 c 2.779,-6.28575 6.351,-9.14289 9.13,-9.14289 V 0 H 99.2366 V 1.71429 Z M 0,0 v 1.71429 c 7.14504,0 8.73282,1.71428 8.73282,7.42857 V 51.0476 C 8.73282,60 7.34351,60.9524 0,60.9524 v 1.7143 h 50.0153 l 5.5572,-16.9524 -1.3893,-0.381 C 48.8244,58.0952 45.0534,60 33.7405,60 H 26.7939 C 18.0611,60 17.6641,59.8095 17.6641,49.5238 V 11.4286 c 0,-7.80955 1.5878,-9.52384 10.3206,-9.52384 V 0 Z M 207.008,1.71429 V 0 H 190.733 L 166.916,49.5238 142.107,0 h -16.672 v 1.71429 c 6.947,0 8.534,2.09523 8.534,8.19047 V 50.8571 c 0,8.9524 -1.786,9.9048 -8.534,9.9048 v 1.7143 h 20.244 v -1.7143 c -6.946,0 -8.534,-0.9524 -8.534,-9.9048 V 9.90476 l 25.206,52.57144 h 1.588 L 188.947,9.90476 V 50.8571 c 0,8.9524 -1.39,9.9048 -9.13,9.9048 v 1.7143 h 27.191 v -1.7143 c -7.542,0 -8.733,-1.1428 -8.733,-9.9048 V 8.95238 c 0,-5.52381 1.786,-7.23809 8.733,-7.23809 z m 26.595,9.90471 c 0,-8.76186 1.588,-9.90471 8.931,-9.90471 V 0 h -26.595 v 1.71429 c 7.542,0 8.733,1.14285 8.733,9.90471 v 39.2381 c 0,8.762 -1.39,9.9048 -8.733,9.9048 v 1.7143 h 26.595 v -1.7143 c -7.542,0 -8.732,-1.1428 -8.732,-9.9048 V 34.2857 C 233.802,32.5714 234.595,32 236.58,32 h 28.779 c 2.183,0 2.778,0.7619 2.778,2.8571 v 16 c 0,8.762 -1.389,9.9048 -8.732,9.9048 v 1.7143 H 286 v -1.7143 c -7.542,0 -8.733,-1.1428 -8.733,-9.9048 V 11.619 c 0,-8.76186 1.389,-9.90471 8.733,-9.90471 V 0 h -26.595 v 1.71429 c 7.542,0 8.732,1.14285 8.732,9.90471 v 14.6667 c 0,2.2857 -0.595,2.8572 -2.778,2.8572 h -28.977 c -1.985,0 -2.779,-0.5715 -2.779,-2.0953 z"
     id="path1" />
</svg>
