<?xml version="1.0" encoding="UTF-8" standalone="no"?>
<svg
   viewBox="316.67042 409.68416 974.47923 265.29197"
   version="1.1"
   id="svg11"


   xmlns="http://www.w3.org/2000/svg"
   xmlns:svg="http://www.w3.org/2000/svg">
  <defs
     id="defs11" />
  <path
     fill="#ffffff"
     d="m 909.20009,525.44019 h -40.2 v -34.22 h 64.2 l 34.62,-25.52 h -131.93 v 153.3 h 69.05 c 38.72,0 60.93,-17.54 60.93,-48.14 0,-29.3 -20.12,-45.42 -56.67,-45.42 z m -5.76,68 h -34.44 v -42.44 h 34.48 c 21,0 30.77,7.1 30.77,21.24 -0.04,14.4 -10.39,21.2 -30.81,21.2 z"
     id="path1" />
  <path
     fill="#ffffff"
     d="m 1206.4101,465.71019 h -63.09 v 153.29 h 33.07 v -43.4 h 30 c 40.26,0 65.27,-21.17 65.27,-55 0,-33.83 -24.99,-54.89 -65.25,-54.89 z m -0.71,84.29 h -29.31 v -58.78 h 29.31 c 21.19,0 32.86,10.44 32.86,29.4 0,18.96 -11.67,29.38 -32.86,29.38 z"
     id="path2" />
  <path
     fill="#ffffff"
     d="m 779.13009,585.77019 a 59.16,59.16 0 0 1 -28.55,7.15 c -29.81,0 -51.45,-21.27 -51.45,-50.59 0,-29.32 21.64,-50.6 51.45,-50.6 a 50.46,50.46 0 0 1 30.08,9.41 l 23.72,-17.48 v 0 l -1.57,-1.37 c -13.85,-12.17 -32.35,-18.6 -53.5,-18.6 -22.95,0 -43.78,7.74 -58.65,21.79 -14.87,14.05 -23.19,34 -23.19,56 0,22 8.2,42.26 23.11,56.83 14.91,14.57 35.73,22.69 58.51,22.69 23.84,0 44.66,-8.31 58.77,-23.43 l -21.4,-15.78 z"
     id="path3" />
  <path
     fill="#ffffff"
     d="m 564.27009,464.47019 a 127.75,127.75 0 0 1 15.26,25.32 l -116,85.51 -48.53,-30.39 v -36.56 l 48.48,30.39 z"
     id="path4" />
  <path
     fill="#ffffff"
     d="m 365.57009,542.33019 q 0,-2.46 0.12,-4.89 l -29.38,-1.44 q -0.15,3.15 -0.15,6.36 a 127,127 0 0 0 37.29,90 l 20.84,-20.83 a 97.58,97.58 0 0 1 -28.72,-69.2 z"
     id="path5" />
  <path
     fill="#ffffff"
     d="m 463.50009,444.40019 c 1.64,0 3.27,0.06 4.89,0.14 l 1.47,-29.39 q -3.17,-0.16 -6.36,-0.16 a 127,127 0 0 0 -90.05,37.29 l 20.84,20.84 a 97.58,97.58 0 0 1 69.21,-28.72 z"
     id="path6" />
  <path
     fill="#ffffff"
     d="m 463.50009,640.26019 c -1.64,0 -3.27,0 -4.89,-0.13 l -1.47,29.38 q 3.15,0.16 6.36,0.16 a 126.91,126.91 0 0 0 90,-37.3 l -20.83,-20.83 a 97.62,97.62 0 0 1 -69.17,28.72 z"
     id="path7" />
  <path
     fill="#ffffff"
     d="m 518.71009,461.49019 24.76,-18.25 a 126.77,126.77 0 0 0 -80,-28.25 v 0 29.41 a 97.43,97.43 0 0 1 55.24,17.09 z"
     id="path8" />
  <path
     fill="#ffffff"
     d="m 590.84009,542.33019 a 128.1,128.1 0 0 0 -2,-22.82 l -27.41,20.2 c 0,0.87 0,1.74 0,2.62 a 97.7,97.7 0 0 1 -32.26,72.58 l 19.76,21.85 a 127,127 0 0 0 41.91,-94.43 z"
     id="path9" />
  <path
     fill="#ffffff"
     d="m 463.50009,640.26019 a 97.68,97.68 0 0 1 -72.58,-32.26 l -21.85,19.76 a 127,127 0 0 0 94.43,41.91 z"
     id="path10" />
  <path
     fill="#ffffff"
     d="m 397.83009,469.75019 -19.76,-21.85 a 127,127 0 0 0 -41.91,94.43 h 29.41 a 97.68,97.68 0 0 1 32.26,-72.58 z"
     id="path11" />
  <polygon
     fill="#ffffff"
     points="996.66,465.7 996.66,618.96 1112.53,618.96 1112.53,593.44 1029.73,593.44 1029.73,554.2 1100.36,554.2 1100.36,528.69 1029.73,528.69 1029.73,491.22 1077.91,491.22 1112.53,465.7 "
     id="polygon11"
     transform="translate(8.865421e-5,1.9491501e-4)" />
</svg>
